#tb 0: 1/44100
#media_type 0: audio
#codec_id 0: pcm_s16le
#sample_rate 0: 44100
#channel_layout_name 0: mono
0,          0,          0,     1152,     2304, 0xc521bacd
0,       1152,       1152,     1152,     2304, 0x9a807525
0,       2304,       2304,     1152,     2304, 0x86ae6a04
0,       3456,       3456,     1152,     2304, 0xf508877c
0,       4608,       4608,     1152,     2304, 0x29506d7c
0,       5760,       5760,     1152,     2304, 0x24078edb
0,       6912,       6912,     1152,     2304, 0x4f6984d2
0,       8064,       8064,     1152,     2304, 0x24186e95
0,       9216,       9216,     1152,     2304, 0xd1927b28
0,      10368,      10368,     1152,     2304, 0xc77283d5
0,      11520,      11520,     1152,     2304, 0xc0b773f8
0,      12672,      12672,     1152,     2304, 0x0e1b8524
0,      13824,      13824,     1152,     2304, 0x8b0061dc
0,      14976,      14976,     1152,     2304, 0x37c77ad6
0,      16128,      16128,     1152,     2304, 0x5eae7410
0,      17280,      17280,     1152,     2304, 0x72d97ab5
0,      18432,      18432,     1152,     2304, 0x1afd8745
0,      19584,      19584,     1152,     2304, 0xe30b7c9b
0,      20736,      20736,     1152,     2304, 0xe86480b3
0,      21888,      21888,     1152,     2304, 0xb9c77a4e
0,      23040,      23040,     1152,     2304, 0x64508f2a
0,      24192,      24192,     1152,     2304, 0x836c74ed
0,      25344,      25344,     1152,     2304, 0x12147a5d
0,      26496,      26496,     1152,     2304, 0x33b07d3b
0,      27648,      27648,     1152,     2304, 0x65e67731
0,      28800,      28800,     1152,     2304, 0x8d1c8191
0,      29952,      29952,     1152,     2304, 0xad7b7701
0,      31104,      31104,     1152,     2304, 0x499c7f6c
0,      32256,      32256,     1152,     2304, 0x5df97989
0,      33408,      33408,     1152,     2304, 0x0db17ad9
0,      34560,      34560,     1152,     2304, 0x0d3281d7
0,      35712,      35712,     1152,     2304, 0x255f704f
0,      36864,      36864,     1152,     2304, 0xdf7c73d0
0,      38016,      38016,     1152,     2304, 0x93dd737c
0,      39168,      39168,     1152,     2304, 0x48ed5740
0,      40320,      40320,     1152,     2304, 0x6d7b7eaf
0,      41472,      41472,     1152,     2304, 0xe72373a1
0,      42624,      42624,     1152,     2304, 0x7d3e7e2e
0,      43776,      43776,     1152,     2304, 0x0d167743
0,      44928,      44928,     1152,     2304, 0xc2d97f6c
0,      46080,      46080,     1152,     2304, 0xc66175a0
0,      47232,      47232,     1152,     2304, 0xd02a7475
0,      48384,      48384,     1152,     2304, 0xdbf57801
0,      49536,      49536,     1152,     2304, 0x52b47a8e
0,      50688,      50688,     1152,     2304, 0xc93d80c5
0,      51840,      51840,     1152,     2304, 0x071e76cf
0,      52992,      52992,     1152,     2304, 0x2aa07ee2
0,      54144,      54144,     1152,     2304, 0x04059074
0,      55296,      55296,     1152,     2304, 0x228f6def
0,      56448,      56448,     1152,     2304, 0x927893a8
0,      57600,      57600,     1152,     2304, 0x583687df
0,      58752,      58752,     1152,     2304, 0x0d3f653c
0,      59904,      59904,     1152,     2304, 0xc0e775f3
0,      61056,      61056,     1152,     2304, 0x41d98473
0,      62208,      62208,     1152,     2304, 0x68fb775a
0,      63360,      63360,     1152,     2304, 0x81e0810e
0,      64512,      64512,     1152,     2304, 0xf35790d3
0,      65664,      65664,     1152,     2304, 0xc1468c45
0,      66816,      66816,     1152,     2304, 0x6949796a
0,      67968,      67968,     1152,     2304, 0xa0bb7dcd
0,      69120,      69120,     1152,     2304, 0x50af8424
0,      70272,      70272,     1152,     2304, 0x449b7d37
0,      71424,      71424,     1152,     2304, 0xcf3379a8
0,      72576,      72576,     1152,     2304, 0x069d894e
0,      73728,      73728,     1152,     2304, 0x41bd7334
0,      74880,      74880,     1152,     2304, 0x0de78c05
0,      76032,      76032,     1152,     2304, 0x2d127b9d
0,      77184,      77184,     1152,     2304, 0x422875b5
0,      78336,      78336,     1152,     2304, 0xd5297389
0,      79488,      79488,     1152,     2304, 0x49e38668
0,      80640,      80640,     1152,     2304, 0x2a9a810b
0,      81792,      81792,     1152,     2304, 0x5a657b43
0,      82944,      82944,     1152,     2304, 0x32307c12
0,      84096,      84096,     1152,     2304, 0x75c87bba
0,      85248,      85248,     1152,     2304, 0x5b1c823b
0,      86400,      86400,     1152,     2304, 0xeeb872ef
0,      87552,      87552,     1152,     2304, 0x6ecc869d
0,      88704,      88704,     1152,     2304, 0x4b3e764f
0,      89856,      89856,     1152,     2304, 0x30986fdb
0,      91008,      91008,     1152,     2304, 0x958374ff
0,      92160,      92160,     1152,     2304, 0x411b71cc
0,      93312,      93312,     1152,     2304, 0x7fed6759
0,      94464,      94464,     1152,     2304, 0x05a56793
0,      95616,      95616,     1152,     2304, 0x48f18827
0,      96768,      96768,     1152,     2304, 0xb40d7866
0,      97920,      97920,     1152,     2304, 0xcad18c4a
0,      99072,      99072,     1152,     2304, 0x9ad68582
0,     100224,     100224,     1152,     2304, 0x3ad17fce
0,     101376,     101376,     1152,     2304, 0x824b7af6
0,     102528,     102528,     1152,     2304, 0xcc9d894f
0,     103680,     103680,     1152,     2304, 0x46347a70
0,     104832,     104832,     1152,     2304, 0x2453872a
0,     105984,     105984,     1152,     2304, 0x58cb72a5
0,     107136,     107136,     1152,     2304, 0x01957747
0,     108288,     108288,     1152,     2304, 0x6df172cb
0,     109440,     109440,     1152,     2304, 0xdb367cbc
0,     110592,     110592,     1152,     2304, 0xc9c56fdb
0,     111744,     111744,     1152,     2304, 0xcd1f8433
0,     112896,     112896,     1152,     2304, 0x1c6e70f2
0,     114048,     114048,     1152,     2304, 0x530184d7
0,     115200,     115200,     1152,     2304, 0xda878aa9
0,     116352,     116352,     1152,     2304, 0xe7fa7b90
0,     117504,     117504,     1152,     2304, 0xa8a68176
0,     118656,     118656,     1152,     2304, 0xe4eb78a9
0,     119808,     119808,     1152,     2304, 0x9ea27c30
0,     120960,     120960,     1152,     2304, 0x1bd98591
0,     122112,     122112,     1152,     2304, 0x31af7ada
0,     123264,     123264,     1152,     2304, 0xeac277e4
0,     124416,     124416,     1152,     2304, 0xf51a7ea1
0,     125568,     125568,     1152,     2304, 0xc8c076e7
0,     126720,     126720,     1152,     2304, 0xa52a8768
0,     127872,     127872,     1152,     2304, 0x2abf846a
0,     129024,     129024,     1152,     2304, 0x1d428641
0,     130176,     130176,     1152,     2304, 0x049683c5
0,     131328,     131328,     1152,     2304, 0x5c13719b
0,     132480,     132480,     1152,     2304, 0x0ace777c
0,     133632,     133632,     1152,     2304, 0xc7a87f7f
0,     134784,     134784,     1152,     2304, 0xd358724b
0,     135936,     135936,     1152,     2304, 0x4ac67e9e
0,     137088,     137088,     1152,     2304, 0xfb7373a0
0,     138240,     138240,     1152,     2304, 0x315f7e19
0,     139392,     139392,     1152,     2304, 0x6109767d
0,     140544,     140544,     1152,     2304, 0xe4c984e4
0,     141696,     141696,     1152,     2304, 0xc86171e2
0,     142848,     142848,     1152,     2304, 0xdf4c81be
0,     144000,     144000,     1152,     2304, 0x758485df
0,     145152,     145152,     1152,     2304, 0x6c8871bd
0,     146304,     146304,     1152,     2304, 0x6f4b76a4
0,     147456,     147456,     1152,     2304, 0xe5cb7b71
0,     148608,     148608,     1152,     2304, 0xdd508866
0,     149760,     149760,     1152,     2304, 0xa01578a5
0,     150912,     150912,     1152,     2304, 0x733b7873
0,     152064,     152064,     1152,     2304, 0x4429605d
0,     153216,     153216,     1152,     2304, 0x9ef67d28
0,     154368,     154368,     1152,     2304, 0xe23983bf
0,     155520,     155520,     1152,     2304, 0xf04a818c
0,     156672,     156672,     1152,     2304, 0x1e3d896c
0,     157824,     157824,     1152,     2304, 0xf47e7180
0,     158976,     158976,     1152,     2304, 0xe3cf81aa
0,     160128,     160128,     1152,     2304, 0x656681cb
0,     161280,     161280,     1152,     2304, 0x7e6d87fc
0,     162432,     162432,     1152,     2304, 0xa7b45eeb
0,     163584,     163584,     1152,     2304, 0xea698906
0,     164736,     164736,     1152,     2304, 0x33ad6c13
0,     165888,     165888,     1152,     2304, 0x7fb78372
0,     167040,     167040,     1152,     2304, 0x448c7377
0,     168192,     168192,     1152,     2304, 0xb4cf70b3
0,     169344,     169344,     1152,     2304, 0xd44c84d1
0,     170496,     170496,     1152,     2304, 0x53d577ac
0,     171648,     171648,     1152,     2304, 0xd8237dc7
0,     172800,     172800,     1152,     2304, 0x4a827c5c
0,     173952,     173952,     1152,     2304, 0x349b7026
0,     175104,     175104,     1152,     2304, 0x3f1a6e81
0,     176256,     176256,     1152,     2304, 0x3f867098
0,     177408,     177408,     1152,     2304, 0x1d857987
0,     178560,     178560,     1152,     2304, 0xf8f17c16
0,     179712,     179712,     1152,     2304, 0x258c82c4
0,     180864,     180864,     1152,     2304, 0x2a9f90bb
0,     182016,     182016,     1152,     2304, 0x99d068db
0,     183168,     183168,     1152,     2304, 0x9a6276da
0,     184320,     184320,     1152,     2304, 0x97987172
0,     185472,     185472,     1152,     2304, 0x32097ace
0,     186624,     186624,     1152,     2304, 0x1b538baa
0,     187776,     187776,     1152,     2304, 0xeafc8b72
0,     188928,     188928,     1152,     2304, 0x36429152
0,     190080,     190080,     1152,     2304, 0x56ee7bac
0,     191232,     191232,     1152,     2304, 0xd74c7c72
0,     192384,     192384,     1152,     2304, 0xc5038776
0,     193536,     193536,     1152,     2304, 0xdcb17735
0,     194688,     194688,     1152,     2304, 0x083a6d78
0,     195840,     195840,     1152,     2304, 0x5ce56bad
0,     196992,     196992,     1152,     2304, 0x30818180
0,     198144,     198144,     1152,     2304, 0x3a256b87
0,     199296,     199296,     1152,     2304, 0xf03279d1
0,     200448,     200448,     1152,     2304, 0x2bb485d4
0,     201600,     201600,     1152,     2304, 0x6c367caa
0,     202752,     202752,     1152,     2304, 0x64336d6e
0,     203904,     203904,     1152,     2304, 0xfc437e51
0,     205056,     205056,     1152,     2304, 0x274e7bd7
0,     206208,     206208,     1152,     2304, 0xa2d475b0
0,     207360,     207360,     1152,     2304, 0xd11573fc
0,     208512,     208512,     1152,     2304, 0x71a679e9
0,     209664,     209664,     1152,     2304, 0xff29710d
0,     210816,     210816,     1152,     2304, 0xa4ee8333
0,     211968,     211968,     1152,     2304, 0x92ec6b77
0,     213120,     213120,     1152,     2304, 0x7ddd7ad6
0,     214272,     214272,     1152,     2304, 0x1258786d
0,     215424,     215424,     1152,     2304, 0xf4047a8a
0,     216576,     216576,     1152,     2304, 0x7bdb73f0
0,     217728,     217728,     1152,     2304, 0xfd917a3c
0,     218880,     218880,     1152,     2304, 0x09697f3e
0,     220032,     220032,     1152,     2304, 0x222a75b1
0,     221184,     221184,     1152,     2304, 0x25027394
0,     222336,     222336,     1152,     2304, 0x7bba7ec0
0,     223488,     223488,     1152,     2304, 0x18127bba
0,     224640,     224640,     1152,     2304, 0x9df273ba
0,     225792,     225792,     1152,     2304, 0xc2668329
0,     226944,     226944,     1152,     2304, 0x99776ef7
0,     228096,     228096,     1152,     2304, 0x2e8d7bb5
0,     229248,     229248,     1152,     2304, 0xb0918677
0,     230400,     230400,     1152,     2304, 0x67647304
0,     231552,     231552,     1152,     2304, 0xd3857b1f
0,     232704,     232704,     1152,     2304, 0xd8c38306
0,     233856,     233856,     1152,     2304, 0xb7dc78b0
0,     235008,     235008,     1152,     2304, 0xb3237e88
0,     236160,     236160,     1152,     2304, 0xe4067235
0,     237312,     237312,     1152,     2304, 0xc2486e08
0,     238464,     238464,     1152,     2304, 0xb60d7c8b
0,     239616,     239616,     1152,     2304, 0x4768674d
0,     240768,     240768,     1152,     2304, 0xa9d2790b
0,     241920,     241920,     1152,     2304, 0x816c802e
0,     243072,     243072,     1152,     2304, 0xc266754a
0,     244224,     244224,     1152,     2304, 0xd6b87474
0,     245376,     245376,     1152,     2304, 0x6be784aa
0,     246528,     246528,     1152,     2304, 0x4789706b
0,     247680,     247680,     1152,     2304, 0x15e988b2
0,     248832,     248832,     1152,     2304, 0xf307955f
0,     249984,     249984,     1152,     2304, 0xcb9f6a56
0,     251136,     251136,     1152,     2304, 0x32648305
0,     252288,     252288,     1152,     2304, 0xa98c8301
0,     253440,     253440,     1152,     2304, 0x7fa76fe0
0,     254592,     254592,     1152,     2304, 0xbf71782b
0,     255744,     255744,     1152,     2304, 0x432a6f21
0,     256896,     256896,     1152,     2304, 0x2f6f7da4
0,     258048,     258048,     1152,     2304, 0x4aa481fe
0,     259200,     259200,     1152,     2304, 0xb99273bf
0,     260352,     260352,     1152,     2304, 0x682f7e8d
0,     261504,     261504,     1152,     2304, 0x36b188af
0,     262656,     262656,     1152,     2304, 0xc2287c4b
0,     263808,     263808,     1152,     2304, 0x55b99348
0,     264960,     264960,     1152,     2304, 0xc48d794f
0,     266112,     266112,     1152,     2304, 0x776a6d0b
0,     267264,     267264,     1152,     2304, 0x13c177dc
0,     268416,     268416,     1152,     2304, 0xe33492ba
0,     269568,     269568,     1152,     2304, 0x06a17a49
0,     270720,     270720,     1152,     2304, 0xeb64879e
0,     271872,     271872,     1152,     2304, 0xb88d7f82
0,     273024,     273024,     1152,     2304, 0x40af76b1
0,     274176,     274176,     1152,     2304, 0xfcf47084
0,     275328,     275328,     1152,     2304, 0x28a28b18
0,     276480,     276480,     1152,     2304, 0x83277094
0,     277632,     277632,     1152,     2304, 0x751a7e16
0,     278784,     278784,     1152,     2304, 0xe3b87d1c
0,     279936,     279936,     1152,     2304, 0x86237e44
0,     281088,     281088,     1152,     2304, 0xbaae7bcb
0,     282240,     282240,     1152,     2304, 0x998b7248
0,     283392,     283392,     1152,     2304, 0x76f06aca
0,     284544,     284544,     1152,     2304, 0x25167797
0,     285696,     285696,     1152,     2304, 0x0b708687
0,     286848,     286848,     1152,     2304, 0xcbbb86b3
0,     288000,     288000,     1152,     2304, 0xd9fa7e41
0,     289152,     289152,     1152,     2304, 0x4d9b7d73
0,     290304,     290304,     1152,     2304, 0x624c64da
0,     291456,     291456,     1152,     2304, 0x942d8931
0,     292608,     292608,     1152,     2304, 0x205a8195
0,     293760,     293760,     1152,     2304, 0xece27554
0,     294912,     294912,     1152,     2304, 0x77437983
0,     296064,     296064,     1152,     2304, 0xdd3b7eeb
0,     297216,     297216,     1152,     2304, 0xd16f6e1f
0,     298368,     298368,     1152,     2304, 0x99647f2c
0,     299520,     299520,     1152,     2304, 0xf6bf7ec4
0,     300672,     300672,     1152,     2304, 0x0d1c85a9
0,     301824,     301824,     1152,     2304, 0x5d03743f
0,     302976,     302976,     1152,     2304, 0xb03f7893
0,     304128,     304128,     1152,     2304, 0xeed87a4e
0,     305280,     305280,     1152,     2304, 0xe67677a8
0,     306432,     306432,     1152,     2304, 0x3d488788
0,     307584,     307584,     1152,     2304, 0x0f8a6f4d
0,     308736,     308736,     1152,     2304, 0x30fb7a6f
0,     309888,     309888,     1152,     2304, 0xecec724b
0,     311040,     311040,     1152,     2304, 0xb20983cb
0,     312192,     312192,     1152,     2304, 0x75c66bc9
0,     313344,     313344,     1152,     2304, 0x285a75d5
0,     314496,     314496,     1152,     2304, 0x2fb97991
0,     315648,     315648,     1152,     2304, 0x360d81d9
0,     316800,     316800,     1152,     2304, 0xf0e98684
0,     317952,     317952,     1152,     2304, 0x869379e7
0,     319104,     319104,     1152,     2304, 0x27b96a02
0,     320256,     320256,     1152,     2304, 0x259683d4
0,     321408,     321408,     1152,     2304, 0x39f2941e
0,     322560,     322560,     1152,     2304, 0xd8c579f1
0,     323712,     323712,     1152,     2304, 0xfe727de8
0,     324864,     324864,     1152,     2304, 0xf30778c6
0,     326016,     326016,     1152,     2304, 0x66b06aa9
0,     327168,     327168,     1152,     2304, 0xd437747b
0,     328320,     328320,     1152,     2304, 0x4135801c
0,     329472,     329472,     1152,     2304, 0x13118109
0,     330624,     330624,     1152,     2304, 0x7506892a
0,     331776,     331776,     1152,     2304, 0x8da98662
0,     332928,     332928,     1152,     2304, 0xad7b869c
0,     334080,     334080,     1152,     2304, 0x4b3d8993
0,     335232,     335232,     1152,     2304, 0xf102681f
0,     336384,     336384,     1152,     2304, 0x030d6f7a
0,     337536,     337536,     1152,     2304, 0x890b70c2
0,     338688,     338688,     1152,     2304, 0xebeb7bf3
0,     339840,     339840,     1152,     2304, 0x3492774f
0,     340992,     340992,     1152,     2304, 0xbae3786d
0,     342144,     342144,     1152,     2304, 0x3398826a
0,     343296,     343296,     1152,     2304, 0xdc7a78d8
0,     344448,     344448,     1152,     2304, 0xf073789b
0,     345600,     345600,     1152,     2304, 0x2cfd862f
0,     346752,     346752,     1152,     2304, 0x9bc38131
0,     347904,     347904,     1152,     2304, 0xfa7f8144
0,     349056,     349056,     1152,     2304, 0x753986d1
0,     350208,     350208,     1152,     2304, 0x7c517697
0,     351360,     351360,     1152,     2304, 0x620a6f3f
0,     352512,     352512,     1152,     2304, 0x739273a5
0,     353664,     353664,     1152,     2304, 0xe2846f4c
0,     354816,     354816,     1152,     2304, 0x74967cbd
0,     355968,     355968,     1152,     2304, 0x83408e32
0,     357120,     357120,     1152,     2304, 0x0c718531
0,     358272,     358272,     1152,     2304, 0x4cce7a84
0,     359424,     359424,     1152,     2304, 0xd6077648
0,     360576,     360576,     1152,     2304, 0xef948983
0,     361728,     361728,     1152,     2304, 0x259c81d0
0,     362880,     362880,     1152,     2304, 0xec997215
0,     364032,     364032,     1152,     2304, 0xf1a27145
0,     365184,     365184,     1152,     2304, 0x67cc7b3a
0,     366336,     366336,     1152,     2304, 0xd2e57692
0,     367488,     367488,     1152,     2304, 0x7a8261d6
0,     368640,     368640,     1152,     2304, 0x44208338
0,     369792,     369792,     1152,     2304, 0x9cb5810e
0,     370944,     370944,     1152,     2304, 0xbf687f51
0,     372096,     372096,     1152,     2304, 0x53fe815e
0,     373248,     373248,     1152,     2304, 0xdec67e10
0,     374400,     374400,     1152,     2304, 0x7a22867c
0,     375552,     375552,     1152,     2304, 0x5e8779eb
0,     376704,     376704,     1152,     2304, 0x60fe7b82
0,     377856,     377856,     1152,     2304, 0xe7a67fd4
0,     379008,     379008,     1152,     2304, 0xaea37a22
0,     380160,     380160,     1152,     2304, 0xf66d7075
0,     381312,     381312,     1152,     2304, 0xa80b8197
0,     382464,     382464,     1152,     2304, 0x92707b3d
0,     383616,     383616,     1152,     2304, 0x8e257929
0,     384768,     384768,     1152,     2304, 0x8145862d
0,     385920,     385920,     1152,     2304, 0xc124761a
0,     387072,     387072,     1152,     2304, 0xf1f99010
0,     388224,     388224,     1152,     2304, 0xcf2472d8
0,     389376,     389376,     1152,     2304, 0x0dee7a38
0,     390528,     390528,     1152,     2304, 0x6d30819c
0,     391680,     391680,     1152,     2304, 0x741b7fab
0,     392832,     392832,     1152,     2304, 0xb4f769f9
0,     393984,     393984,     1152,     2304, 0xbdc47eab
0,     395136,     395136,     1152,     2304, 0x92a77cf9
0,     396288,     396288,     1152,     2304, 0xb68b82b6
0,     397440,     397440,     1152,     2304, 0x8a378fad
0,     398592,     398592,     1152,     2304, 0x9ec377f3
0,     399744,     399744,     1152,     2304, 0xc7b97507
0,     400896,     400896,     1152,     2304, 0x817e77b2
0,     402048,     402048,     1152,     2304, 0x12548737
0,     403200,     403200,     1152,     2304, 0x2fdf755a
0,     404352,     404352,     1152,     2304, 0x5ba65cd2
0,     405504,     405504,     1152,     2304, 0x665a8d47
0,     406656,     406656,     1152,     2304, 0x56c98770
0,     407808,     407808,     1152,     2304, 0x14257def
0,     408960,     408960,     1152,     2304, 0x241b8437
0,     410112,     410112,     1152,     2304, 0x12327a41
0,     411264,     411264,     1152,     2304, 0xdbe06c4b
0,     412416,     412416,     1152,     2304, 0xc6c988ec
0,     413568,     413568,     1152,     2304, 0x6b53788e
0,     414720,     414720,     1152,     2304, 0xccb18fea
0,     415872,     415872,     1152,     2304, 0x83e47ebd
0,     417024,     417024,     1152,     2304, 0xc24b74f4
0,     418176,     418176,     1152,     2304, 0x0c676dcc
0,     419328,     419328,     1152,     2304, 0xa1d97c6a
0,     420480,     420480,     1152,     2304, 0x4abd7683
0,     421632,     421632,     1152,     2304, 0xc9217f16
0,     422784,     422784,     1152,     2304, 0x36c582fb
0,     423936,     423936,     1152,     2304, 0x48a78165
0,     425088,     425088,     1152,     2304, 0xe36e7f76
0,     426240,     426240,     1152,     2304, 0x4c7d7e8f
0,     427392,     427392,     1152,     2304, 0xb476763a
0,     428544,     428544,     1152,     2304, 0xef048145
0,     429696,     429696,     1152,     2304, 0x54116f12
0,     430848,     430848,     1152,     2304, 0xbde06b70
0,     432000,     432000,     1152,     2304, 0x2b6087d3
0,     433152,     433152,     1152,     2304, 0x10b37175
0,     434304,     434304,     1152,     2304, 0x480c8a8b
0,     435456,     435456,     1152,     2304, 0x6ff8718e
0,     436608,     436608,     1152,     2304, 0x66407937
0,     437760,     437760,     1152,     2304, 0x370d8e8e
0,     438912,     438912,     1152,     2304, 0x4d867d70
0,     440064,     440064,     1152,     2304, 0x3c9878ed
0,     441216,     441216,     1152,     2304, 0x9b877a51
0,     442368,     442368,     1152,     2304, 0xa1eb8204
0,     443520,     443520,     1152,     2304, 0x2b7373ca
0,     444672,     444672,     1152,     2304, 0x4a9c71a1
0,     445824,     445824,     1152,     2304, 0x3d5c76f6
0,     446976,     446976,     1152,     2304, 0x443e76cd
0,     448128,     448128,     1152,     2304, 0xc6ba882a
0,     449280,     449280,     1152,     2304, 0xaa6367ec
0,     450432,     450432,     1152,     2304, 0x3a277ea5
0,     451584,     451584,     1152,     2304, 0x2e6d8348
0,     452736,     452736,     1152,     2304, 0x04ee8782
0,     453888,     453888,     1152,     2304, 0x59b3639d
0,     455040,     455040,     1152,     2304, 0x721a7067
0,     456192,     456192,     1152,     2304, 0x3c9a7ce6
0,     457344,     457344,     1152,     2304, 0xdeb580ab
0,     458496,     458496,     1152,     2304, 0xc09c6ee3
0,     459648,     459648,     1152,     2304, 0x6b29884f
0,     460800,     460800,     1152,     2304, 0x291b82b5
0,     461952,     461952,     1152,     2304, 0x4c567656
0,     463104,     463104,     1152,     2304, 0x75ed833a
0,     464256,     464256,     1152,     2304, 0xe1097b16
0,     465408,     465408,     1152,     2304, 0xe3288462
0,     466560,     466560,     1152,     2304, 0xcf097ae8
0,     467712,     467712,     1152,     2304, 0x403e796d
0,     468864,     468864,     1152,     2304, 0x26fd7fd0
0,     470016,     470016,     1152,     2304, 0x0e2a7554
0,     471168,     471168,     1152,     2304, 0xf82c8040
0,     472320,     472320,     1152,     2304, 0x3fc27784
0,     473472,     473472,     1152,     2304, 0xbe437d5e
0,     474624,     474624,     1152,     2304, 0xed7166bc
0,     475776,     475776,     1152,     2304, 0x79f16d63
0,     476928,     476928,     1152,     2304, 0x1aae793a
0,     478080,     478080,     1152,     2304, 0xd3237f7d
0,     479232,     479232,     1152,     2304, 0x91137992
0,     480384,     480384,     1152,     2304, 0xf8b57cb9
0,     481536,     481536,     1152,     2304, 0x0ccf8309
0,     482688,     482688,     1152,     2304, 0x391f7cb8
0,     483840,     483840,     1152,     2304, 0x0d1f85f9
0,     484992,     484992,     1152,     2304, 0xc43a7824
0,     486144,     486144,     1152,     2304, 0x2f0c7519
0,     487296,     487296,     1152,     2304, 0x13c5976e
0,     488448,     488448,     1152,     2304, 0xdbfb81b2
0,     489600,     489600,     1152,     2304, 0x15b771d3
0,     490752,     490752,     1152,     2304, 0xce5e8625
0,     491904,     491904,     1152,     2304, 0x318472f3
0,     493056,     493056,     1152,     2304, 0x462577a1
0,     494208,     494208,     1152,     2304, 0x024a854d
0,     495360,     495360,     1152,     2304, 0x49f28373
0,     496512,     496512,     1152,     2304, 0xfe3c6e23
0,     497664,     497664,     1152,     2304, 0x70ae84d0
0,     498816,     498816,     1152,     2304, 0x91a08980
0,     499968,     499968,     1152,     2304, 0x25c498c5
0,     501120,     501120,     1152,     2304, 0x52807c02
0,     502272,     502272,     1152,     2304, 0x012a89f6
0,     503424,     503424,     1152,     2304, 0xb8d687bf
0,     504576,     504576,     1152,     2304, 0x72ee7843
0,     505728,     505728,     1152,     2304, 0x3e0d8939
0,     506880,     506880,     1152,     2304, 0x0dcb763c
0,     508032,     508032,     1152,     2304, 0xc3617408
0,     509184,     509184,     1152,     2304, 0x76a87e15
0,     510336,     510336,     1152,     2304, 0x1d437541
0,     511488,     511488,     1152,     2304, 0xf348748b
0,     512640,     512640,     1152,     2304, 0x949d70f4
0,     513792,     513792,     1152,     2304, 0x6283862d
0,     514944,     514944,     1152,     2304, 0x92a76794
0,     516096,     516096,     1152,     2304, 0x31d87f20
0,     517248,     517248,     1152,     2304, 0x13a47a09
0,     518400,     518400,     1152,     2304, 0xf8dc8b14
0,     519552,     519552,     1152,     2304, 0x4d787fea
0,     520704,     520704,     1152,     2304, 0x57f3861a
0,     521856,     521856,     1152,     2304, 0x83437cc7
0,     523008,     523008,     1152,     2304, 0x7cb56a94
0,     524160,     524160,     1152,     2304, 0xbfae8a60
0,     525312,     525312,     1152,     2304, 0x5e4b8cab
0,     526464,     526464,     1152,     2304, 0x6553794b
0,     527616,     527616,     1152,     2304, 0x9c9969ac
0,     528768,     528768,     1152,     2304, 0xde187582
0,     529920,     529920,     1152,     2304, 0xdda178b1
0,     531072,     531072,     1152,     2304, 0xec0b7e60
0,     532224,     532224,     1152,     2304, 0x060f7aa4
0,     533376,     533376,     1152,     2304, 0x2cca7841
0,     534528,     534528,     1152,     2304, 0xf9d26f2b
0,     535680,     535680,     1152,     2304, 0xf9ed84c7
0,     536832,     536832,     1152,     2304, 0x5ac67e15
0,     537984,     537984,     1152,     2304, 0x67147ce9
0,     539136,     539136,     1152,     2304, 0xa75993a7
0,     540288,     540288,     1152,     2304, 0xd1c16d5c
0,     541440,     541440,     1152,     2304, 0x491a8144
0,     542592,     542592,     1152,     2304, 0xa8918177
0,     543744,     543744,     1152,     2304, 0x90bc76b1
0,     544896,     544896,     1152,     2304, 0x9ed4723d
0,     546048,     546048,     1152,     2304, 0xa70f7a0c
0,     547200,     547200,     1152,     2304, 0x73757be2
0,     548352,     548352,     1152,     2304, 0x65e08594
0,     549504,     549504,     1152,     2304, 0xd47481d7
0,     550656,     550656,     1152,     2304, 0xfc7d8427
0,     551808,     551808,     1152,     2304, 0x73f599bd
0,     552960,     552960,     1152,     2304, 0x71df759b
0,     554112,     554112,     1152,     2304, 0x5466849e
0,     555264,     555264,     1152,     2304, 0x074b7f58
0,     556416,     556416,     1152,     2304, 0x42dd711b
0,     557568,     557568,     1152,     2304, 0x4d777422
0,     558720,     558720,     1152,     2304, 0xaa6c6e2b
0,     559872,     559872,     1152,     2304, 0x4a137597
0,     561024,     561024,     1152,     2304, 0x2a137511
0,     562176,     562176,     1152,     2304, 0xe03884c2
0,     563328,     563328,     1152,     2304, 0x563a6b8c
0,     564480,     564480,     1152,     2304, 0x5b847cfc
0,     565632,     565632,     1152,     2304, 0xdc918b29
0,     566784,     566784,     1152,     2304, 0xf5127466
0,     567936,     567936,     1152,     2304, 0x4a1174f4
0,     569088,     569088,     1152,     2304, 0xc807774d
0,     570240,     570240,     1152,     2304, 0x5fb580c0
0,     571392,     571392,     1152,     2304, 0x197c8d6f
0,     572544,     572544,     1152,     2304, 0x174f83ac
0,     573696,     573696,     1152,     2304, 0x94c08302
0,     574848,     574848,     1152,     2304, 0x71d478b2
0,     576000,     576000,     1152,     2304, 0x1f366dae
0,     577152,     577152,     1152,     2304, 0x8f487876
0,     578304,     578304,     1152,     2304, 0xcccf804c
0,     579456,     579456,     1152,     2304, 0xf43f7f97
0,     580608,     580608,     1152,     2304, 0x904d75cd
0,     581760,     581760,     1152,     2304, 0x6bee8374
0,     582912,     582912,     1152,     2304, 0xb640791f
0,     584064,     584064,     1152,     2304, 0xcea37501
0,     585216,     585216,     1152,     2304, 0x99a28bac
0,     586368,     586368,     1152,     2304, 0x65e372b7
0,     587520,     587520,     1152,     2304, 0xbcc762ff
0,     588672,     588672,     1152,     2304, 0xf94e8378
0,     589824,     589824,     1152,     2304, 0x184d7ad4
0,     590976,     590976,     1152,     2304, 0x89fd753f
0,     592128,     592128,     1152,     2304, 0x96588fc5
0,     593280,     593280,     1152,     2304, 0x8b9b76af
0,     594432,     594432,     1152,     2304, 0xcdb36e67
0,     595584,     595584,     1152,     2304, 0xe0647ff3
0,     596736,     596736,     1152,     2304, 0x4fee7d48
0,     597888,     597888,     1152,     2304, 0x9b6f8287
0,     599040,     599040,     1152,     2304, 0xc25a8063
0,     600192,     600192,     1152,     2304, 0x40f47dd7
0,     601344,     601344,     1152,     2304, 0xd426777f
0,     602496,     602496,     1152,     2304, 0x3f6075ac
0,     603648,     603648,     1152,     2304, 0x432786c6
0,     604800,     604800,     1152,     2304, 0x10f6650d
0,     605952,     605952,     1152,     2304, 0xd75c7b69
0,     607104,     607104,     1152,     2304, 0x43617fae
0,     608256,     608256,     1152,     2304, 0xa8bd7a9f
0,     609408,     609408,     1152,     2304, 0xc21b60a0
0,     610560,     610560,     1152,     2304, 0x15678fec
0,     611712,     611712,     1152,     2304, 0x29a97416
0,     612864,     612864,     1152,     2304, 0x12637d00
0,     614016,     614016,     1152,     2304, 0xa97b7141
0,     615168,     615168,     1152,     2304, 0x871b79bf
0,     616320,     616320,     1152,     2304, 0xa3e57dce
0,     617472,     617472,     1152,     2304, 0xf13578d1
0,     618624,     618624,     1152,     2304, 0x97c47166
0,     619776,     619776,     1152,     2304, 0x6e407c25
0,     620928,     620928,     1152,     2304, 0x82a07c9a
0,     622080,     622080,     1152,     2304, 0xf62381ef
0,     623232,     623232,     1152,     2304, 0x2ab86ca8
0,     624384,     624384,     1152,     2304, 0x97ca87ed
0,     625536,     625536,     1152,     2304, 0x6b4868f2
0,     626688,     626688,     1152,     2304, 0xdb72953c
0,     627840,     627840,     1152,     2304, 0x061c7770
0,     628992,     628992,     1152,     2304, 0xae067224
0,     630144,     630144,     1152,     2304, 0x88a282a3
0,     631296,     631296,     1152,     2304, 0x4e14743e
0,     632448,     632448,     1152,     2304, 0x3dbd8b7b
0,     633600,     633600,     1152,     2304, 0xcae57312
0,     634752,     634752,     1152,     2304, 0xf92b8ca7
0,     635904,     635904,     1152,     2304, 0x03ec6f07
0,     637056,     637056,     1152,     2304, 0x8c497359
0,     638208,     638208,     1152,     2304, 0x8ad3804c
0,     639360,     639360,     1152,     2304, 0xf30087c8
0,     640512,     640512,     1152,     2304, 0x20ce7cd1
0,     641664,     641664,     1152,     2304, 0xc66772bd
0,     642816,     642816,     1152,     2304, 0x05e6630b
0,     643968,     643968,     1152,     2304, 0x020688d9
0,     645120,     645120,     1152,     2304, 0xee3873cd
0,     646272,     646272,     1152,     2304, 0xf297782b
0,     647424,     647424,     1152,     2304, 0xf8877144
0,     648576,     648576,     1152,     2304, 0xce1e6f33
0,     649728,     649728,     1152,     2304, 0xf0457e4f
0,     650880,     650880,     1152,     2304, 0xdec787df
0,     652032,     652032,     1152,     2304, 0x5e006d1d
0,     653184,     653184,     1152,     2304, 0x949087ef
0,     654336,     654336,     1152,     2304, 0xdbb069c6
0,     655488,     655488,     1152,     2304, 0xd530806e
0,     656640,     656640,     1152,     2304, 0x80027b1d
0,     657792,     657792,     1152,     2304, 0xccb47c48
0,     658944,     658944,     1152,     2304, 0x4f2f8326
0,     660096,     660096,     1152,     2304, 0xfe046f23
0,     661248,     661248,     1152,     2304, 0x58cd759b
0,     662400,     662400,     1152,     2304, 0x83147073
0,     663552,     663552,     1152,     2304, 0xc9e77b95
0,     664704,     664704,     1152,     2304, 0x702d8e51
0,     665856,     665856,     1152,     2304, 0x5f498492
0,     667008,     667008,     1152,     2304, 0x10116d0e
0,     668160,     668160,     1152,     2304, 0xb8367894
0,     669312,     669312,     1152,     2304, 0x2b357892
0,     670464,     670464,     1152,     2304, 0x160e6c20
0,     671616,     671616,     1152,     2304, 0x0534874b
0,     672768,     672768,     1152,     2304, 0xde687064
0,     673920,     673920,     1152,     2304, 0x91b97fe4
0,     675072,     675072,     1152,     2304, 0x075a73ce
0,     676224,     676224,     1152,     2304, 0x1bf97777
0,     677376,     677376,     1152,     2304, 0xaada9096
0,     678528,     678528,     1152,     2304, 0xeac96f7e
0,     679680,     679680,     1152,     2304, 0xe9ca6e72
0,     680832,     680832,     1152,     2304, 0xd0868038
0,     681984,     681984,     1152,     2304, 0x686376f1
0,     683136,     683136,     1152,     2304, 0xdfb97684
0,     684288,     684288,     1152,     2304, 0x83c55d92
0,     685440,     685440,     1152,     2304, 0x772a7b70
0,     686592,     686592,     1152,     2304, 0x60a37941
0,     687744,     687744,     1152,     2304, 0xb00267bd
0,     688896,     688896,     1152,     2304, 0xd0a166eb
0,     690048,     690048,     1152,     2304, 0x88718162
0,     691200,     691200,     1152,     2304, 0xf9e084ff
0,     692352,     692352,     1152,     2304, 0x2ddc8c08
0,     693504,     693504,     1152,     2304, 0x843a7178
0,     694656,     694656,     1152,     2304, 0x1d9784b4
0,     695808,     695808,     1152,     2304, 0x98e27b1d
0,     696960,     696960,     1152,     2304, 0x583e846e
0,     698112,     698112,     1152,     2304, 0xa6d284ec
0,     699264,     699264,     1152,     2304, 0xa0147cbf
0,     700416,     700416,     1152,     2304, 0xb3bf7b4b
0,     701568,     701568,     1152,     2304, 0x7f8b78dd
0,     702720,     702720,     1152,     2304, 0xd3fb761f
0,     703872,     703872,     1152,     2304, 0x78147c2f
0,     705024,     705024,     1152,     2304, 0x5e747b26
0,     706176,     706176,     1152,     2304, 0x0d647d96
0,     707328,     707328,     1152,     2304, 0x73728362
0,     708480,     708480,     1152,     2304, 0x7c54707b
0,     709632,     709632,     1152,     2304, 0xb89c7806
0,     710784,     710784,     1152,     2304, 0x5f0f7a91
0,     711936,     711936,     1152,     2304, 0x35217e84
0,     713088,     713088,     1152,     2304, 0xb3798553
0,     714240,     714240,     1152,     2304, 0xd8377e8a
0,     715392,     715392,     1152,     2304, 0x339181ba
0,     716544,     716544,     1152,     2304, 0xbe196b2c
0,     717696,     717696,     1152,     2304, 0xdc708cc4
0,     718848,     718848,     1152,     2304, 0x649c74c1
0,     720000,     720000,     1152,     2304, 0xac128649
0,     721152,     721152,     1152,     2304, 0xcd506a22
0,     722304,     722304,     1152,     2304, 0xdfde7023
0,     723456,     723456,     1152,     2304, 0xf92d7450
0,     724608,     724608,     1152,     2304, 0x9ce379ac
0,     725760,     725760,     1152,     2304, 0xee5e712e
0,     726912,     726912,     1152,     2304, 0xa12e76c0
0,     728064,     728064,     1152,     2304, 0x4cee7be1
0,     729216,     729216,     1152,     2304, 0x90d481e5
0,     730368,     730368,     1152,     2304, 0xa6718158
0,     731520,     731520,     1152,     2304, 0xd248864a
0,     732672,     732672,     1152,     2304, 0x7ab972b4
0,     733824,     733824,     1152,     2304, 0x5c8a75cb
0,     734976,     734976,     1152,     2304, 0x07606722
0,     736128,     736128,     1152,     2304, 0xbf497aae
0,     737280,     737280,     1152,     2304, 0xffab7d66
0,     738432,     738432,     1152,     2304, 0xefaa7d05
0,     739584,     739584,     1152,     2304, 0x02d686dd
0,     740736,     740736,     1152,     2304, 0x852e6eb6
0,     741888,     741888,     1152,     2304, 0x3479706b
0,     743040,     743040,     1152,     2304, 0x04a37828
0,     744192,     744192,     1152,     2304, 0x5d5c833c
0,     745344,     745344,     1152,     2304, 0xf4277e06
0,     746496,     746496,     1152,     2304, 0xcece72ab
0,     747648,     747648,     1152,     2304, 0x10657aff
0,     748800,     748800,     1152,     2304, 0x0265762b
0,     749952,     749952,     1152,     2304, 0x0fc979de
0,     751104,     751104,     1152,     2304, 0xeecf7010
0,     752256,     752256,     1152,     2304, 0x319575cd
0,     753408,     753408,     1152,     2304, 0xccbc84a7
0,     754560,     754560,     1152,     2304, 0x823e6935
0,     755712,     755712,     1152,     2304, 0xa0606ade
0,     756864,     756864,     1152,     2304, 0x2c2d7866
0,     758016,     758016,     1152,     2304, 0x3a5a781e
0,     759168,     759168,     1152,     2304, 0xdaf677fd
0,     760320,     760320,     1152,     2304, 0x79d88aca
0,     761472,     761472,     1152,     2304, 0x3db27308
0,     762624,     762624,     1152,     2304, 0x627175ff
0,     763776,     763776,     1152,     2304, 0x40697b16
0,     764928,     764928,     1152,     2304, 0x40f47ee7
0,     766080,     766080,     1152,     2304, 0x6a8a7d91
0,     767232,     767232,     1152,     2304, 0x8d3e8a32
0,     768384,     768384,     1152,     2304, 0x576a817e
0,     769536,     769536,     1152,     2304, 0x86287f9b
0,     770688,     770688,     1152,     2304, 0x542b80cf
0,     771840,     771840,     1152,     2304, 0xae987ebe
0,     772992,     772992,     1152,     2304, 0x50357e5c
0,     774144,     774144,     1152,     2304, 0x283a7c8a
0,     775296,     775296,     1152,     2304, 0xf9ef8829
0,     776448,     776448,     1152,     2304, 0xb16c6fe9
0,     777600,     777600,     1152,     2304, 0xa69a7d34
0,     778752,     778752,     1152,     2304, 0xb47673e8
0,     779904,     779904,     1152,     2304, 0x64987c6d
0,     781056,     781056,     1152,     2304, 0xb730926a
0,     782208,     782208,     1152,     2304, 0x84fd6ceb
0,     783360,     783360,     1152,     2304, 0x76aa8992
0,     784512,     784512,     1152,     2304, 0x996f816b
0,     785664,     785664,     1152,     2304, 0x6b1470be
0,     786816,     786816,     1152,     2304, 0x38526cf2
0,     787968,     787968,     1152,     2304, 0xfc0081f4
0,     789120,     789120,     1152,     2304, 0xa5fd6fea
0,     790272,     790272,     1152,     2304, 0x6ceb7f58
0,     791424,     791424,     1152,     2304, 0x037c80e9
0,     792576,     792576,     1152,     2304, 0x2a246e9e
0,     793728,     793728,     1152,     2304, 0x63517e41
0,     794880,     794880,     1152,     2304, 0x271a79ad
0,     796032,     796032,     1152,     2304, 0x7d797c8a
0,     797184,     797184,     1152,     2304, 0x455281bb
0,     798336,     798336,     1152,     2304, 0x630a9cff
0,     799488,     799488,     1152,     2304, 0x80ef6f7d
0,     800640,     800640,     1152,     2304, 0x7ee57c97
0,     801792,     801792,     1152,     2304, 0x1cf59830
0,     802944,     802944,     1152,     2304, 0x75ad82d2
0,     804096,     804096,     1152,     2304, 0x2b926982
0,     805248,     805248,     1152,     2304, 0x05eb7dc3
0,     806400,     806400,     1152,     2304, 0x16947c3b
0,     807552,     807552,     1152,     2304, 0xd51e77df
0,     808704,     808704,     1152,     2304, 0x1b897c56
0,     809856,     809856,     1152,     2304, 0x89cb8221
0,     811008,     811008,     1152,     2304, 0x70d07b31
0,     812160,     812160,     1152,     2304, 0xca3772fa
0,     813312,     813312,     1152,     2304, 0xdc5a764f
0,     814464,     814464,     1152,     2304, 0x5ef09242
0,     815616,     815616,     1152,     2304, 0x2a627f75
0,     816768,     816768,     1152,     2304, 0x5bbd954b
0,     817920,     817920,     1152,     2304, 0x9b188222
0,     819072,     819072,     1152,     2304, 0xe0db8af7
0,     820224,     820224,     1152,     2304, 0x29b682dd
0,     821376,     821376,     1152,     2304, 0x4ed27986
0,     822528,     822528,     1152,     2304, 0xc1ca8236
0,     823680,     823680,     1152,     2304, 0xae4c8e92
0,     824832,     824832,     1152,     2304, 0x826970ea
0,     825984,     825984,     1152,     2304, 0xdbc8838a
0,     827136,     827136,     1152,     2304, 0x84fc72c8
0,     828288,     828288,     1152,     2304, 0xb27e806a
0,     829440,     829440,     1152,     2304, 0x7ae77e7a
0,     830592,     830592,     1152,     2304, 0xba507c9b
0,     831744,     831744,     1152,     2304, 0xeb457c43
0,     832896,     832896,     1152,     2304, 0x92a486a7
0,     834048,     834048,     1152,     2304, 0x8994747e
0,     835200,     835200,     1152,     2304, 0xcdb275bd
0,     836352,     836352,     1152,     2304, 0xdc9a7ebb
0,     837504,     837504,     1152,     2304, 0x0aa1709a
0,     838656,     838656,     1152,     2304, 0x13078109
0,     839808,     839808,     1152,     2304, 0x4a9d7327
0,     840960,     840960,     1152,     2304, 0x320c82d7
0,     842112,     842112,     1152,     2304, 0x8d127a8e
0,     843264,     843264,     1152,     2304, 0x8d527755
0,     844416,     844416,     1152,     2304, 0x3ab66d30
0,     845568,     845568,     1152,     2304, 0xf3ca7e5b
0,     846720,     846720,     1152,     2304, 0xeae770ec
0,     847872,     847872,     1152,     2304, 0xf6828e74
0,     849024,     849024,     1152,     2304, 0x3eaa7c66
0,     850176,     850176,     1152,     2304, 0xd50b6e67
0,     851328,     851328,     1152,     2304, 0xb1e68c9e
0,     852480,     852480,     1152,     2304, 0xb9cc7347
0,     853632,     853632,     1152,     2304, 0xabe486f8
0,     854784,     854784,     1152,     2304, 0x9c487fce
0,     855936,     855936,     1152,     2304, 0x02c1828f
0,     857088,     857088,     1152,     2304, 0x3b647078
0,     858240,     858240,     1152,     2304, 0x631c7621
0,     859392,     859392,     1152,     2304, 0xeeac8205
0,     860544,     860544,     1152,     2304, 0xe6e583da
0,     861696,     861696,     1152,     2304, 0xb7a27e46
0,     862848,     862848,     1152,     2304, 0xb0fa9636
0,     864000,     864000,     1152,     2304, 0x60dd7b7a
0,     865152,     865152,     1152,     2304, 0xf1e3778f
0,     866304,     866304,     1152,     2304, 0xca006a25
0,     867456,     867456,     1152,     2304, 0xbf5c7f3c
0,     868608,     868608,     1152,     2304, 0x74017d34
0,     869760,     869760,     1152,     2304, 0x978a7a01
0,     870912,     870912,     1152,     2304, 0xfaaa7a27
0,     872064,     872064,     1152,     2304, 0x99dd830b
0,     873216,     873216,     1152,     2304, 0xff5d822c
0,     874368,     874368,     1152,     2304, 0xa8578577
0,     875520,     875520,     1152,     2304, 0xa0ec8ef8
0,     876672,     876672,     1152,     2304, 0x4fe276e1
0,     877824,     877824,     1152,     2304, 0xb7887742
0,     878976,     878976,     1152,     2304, 0xb5fc6ae3
0,     880128,     880128,     1152,     2304, 0x39498530
0,     881280,     881280,     1152,     2304, 0x54c25e7b
